Coordinates
version=1
nRows=26
nColumns=24
inDegrees=yes

Units are S.I. units (second, meters, Newtons, ...)
Angles are in degrees.

endheader
time	pelvis_tilt	pelvis_list	pelvis_rotation	pelvis_tx	pelvis_ty	pelvis_tz	hip_flexion_r	hip_adduction_r	hip_rotation_r	knee_angle_r	ankle_angle_r	subtalar_angle_r	mtp_angle_r	hip_flexion_l	hip_adduction_l	hip_rotation_l	knee_angle_l	ankle_angle_l	subtalar_angle_l	mtp_angle_l	lumbar_extension	lumbar_bending	lumbar_rotation
      5.60000000	     -0.97004369	     -1.60263197	     -0.64448072	     -0.94612957	      0.95087451	      0.19277270	     -4.56830940	      7.71660748	      1.13740775	     -5.88217940	     14.71778761	     -4.43820264	      0.00000000	     31.30749109	     -5.31144729	     -9.19120688	    -48.46775447	      4.82454853	    -15.24108405	      0.00000000	    -26.99643093	     -1.79424573	      0.38118757
      5.61000000	     -1.17796118	     -1.89740050	     -0.74536633	     -0.93441015	      0.94893940	      0.19267231	     -5.46206458	      8.02501620	      1.28358071	     -5.29476788	     14.96056842	     -4.48976930	      0.00000000	     31.84869653	     -5.56374134	     -9.58120256	    -45.26956610	      4.21468588	    -16.73557103	      0.00000000	    -26.88133695	     -1.62080832	      0.87484649
      5.62000000	     -1.35484171	     -2.19163778	     -0.91328193	     -0.92243793	      0.94673843	      0.19264445	     -6.41178944	      8.32446374	      1.47604084	     -4.70680019	     15.25451145	     -4.55368280	      0.00000000	     32.24431031	     -5.84843408	    -10.14947067	    -41.98087685	      3.42164005	    -18.30131169	      0.00000000	    -26.77220053	     -1.48274405	      1.43870884
      5.63000000	     -1.49977987	     -2.51057259	     -1.10064726	     -0.91025171	      0.94425083	      0.19262119	     -7.40769386	      8.64164205	      1.68861002	     -4.13965062	     15.59625729	     -4.61154805	      0.00000000	     32.54258694	     -6.15752196	    -10.83112471	    -38.69384089	      2.56524290	    -19.73039244	      0.00000000	    -26.67758856	     -1.32986803	      2.03770671
      5.64000000	     -1.63212998	     -2.86675224	     -1.30416928	     -0.89792438	      0.94145982	      0.19254447	     -8.41277428	      8.98449640	      1.89562901	     -3.61653186	     15.99125137	     -4.64199303	      0.00000000	     32.80844176	     -6.48447793	    -11.57503153	    -35.50225481	      1.75658966	    -20.81715803	      0.00000000	    -26.58479759	     -1.13305466	      2.65926846
      5.65000000	     -1.66826034	     -3.13818471	     -1.51638459	     -0.88530981	      0.93857007	      0.19241021	     -9.54848160	      9.21665379	      2.10999432	     -3.08458730	     16.43897978	     -4.65684621	      0.00000000	     32.93635937	     -6.70025312	    -12.41412720	    -32.44035800	      1.12865353	    -21.31047325	      0.00000000	    -26.57736470	     -1.03847359	      3.22246943
      5.66000000	     -1.80747721	     -3.55565776	     -1.68830864	     -0.87277916	      0.93520268	      0.19203020	    -10.51588258	      9.58799722	      2.28818786	     -2.68544218	     16.96071947	     -4.55961891	      0.00000000	     33.28485664	     -6.96890083	    -13.01674646	    -29.71109158	      0.76294496	    -21.19183272	      0.00000000	    -26.47422247	     -0.72696428	      3.80861947
      5.67000000	     -1.94721270	     -3.96252922	     -1.81557984	     -0.86012675	      0.93162466	      0.19148084	    -11.47538657	      9.93481172	      2.41512142	     -2.32365500	     17.51338604	     -4.39145588	      0.00000000	     33.70270274	     -7.15116049	    -13.41014691	    -27.32874915	      0.69176458	    -20.29802654	      0.00000000	    -26.36928755	     -0.39895455	      4.33941742
      5.68000000	     -2.06918518	     -4.35384160	     -1.87411017	     -0.84737458	      0.92787324	      0.19068259	    -12.43457784	     10.25218591	      2.50757794	     -2.01791889	     18.10447018	     -4.17715556	      0.00000000	     34.17133284	     -7.21639111	    -13.44661591	    -25.32007101	      0.87285487	    -18.80557254	      0.00000000	    -26.29156562	     -0.04335784	      4.75924970
      5.69000000	     -2.15798847	     -4.74280485	     -1.90080964	     -0.83453805	      0.92404437	      0.18975186	    -13.39625406	     10.55222818	      2.56965999	     -1.79536156	     18.69829536	     -3.87631646	      0.00000000	     34.66069323	     -7.21799778	    -13.11572350	    -23.71396306	      1.23883581	    -16.87722772	      0.00000000	    -26.26136714	      0.32512109	      5.14053950
      5.70000000	     -2.21607749	     -5.10839110	     -1.89831765	     -0.82159630	      0.92018214	      0.18874746	    -14.34529123	     10.82038185	      2.57109105	     -1.67454932	     19.29227852	     -3.50134354	      0.00000000	     35.15277523	     -7.15645991	    -12.41737908	    -22.51726886	      1.69069181	    -14.74728925	      0.00000000	    -26.28595055	      0.67967683	      5.47083883
      5.71000000	     -2.23523996	     -5.43869484	     -1.83755108	     -0.80848708	      0.91630923	      0.18765702	    -15.30126317	     11.04991042	      2.53754492	     -1.63722328	     19.87716647	     -3.06189267	      0.00000000	     35.63276625	     -7.02259399	    -11.41242555	    -21.74593801	      2.13217596	    -12.72688888	      0.00000000	    -26.34989619	      1.00254688	      5.72747296
      5.72000000	     -2.23414791	     -5.69696910	     -1.71323808	     -0.79510876	      0.91244777	      0.18648651	    -16.22174297	     11.21368072	      2.26679466	     -1.72348761	     20.53691249	     -2.37156488	      0.00000000	     36.09828950	     -6.78750430	    -10.20363281	    -21.40169245	      2.50733823	    -11.08510926	      0.00000000	    -26.41040290	      1.25113974	      5.93809678
      5.73000000	     -2.18205932	     -5.88216926	     -1.53652985	     -0.78153177	      0.90872018	      0.18518103	    -17.13937808	     11.29957401	      2.00692290	     -1.92934958	     21.11581056	     -1.69826523	      0.00000000	     36.50316170	     -6.45282196	     -8.85071327	    -21.48313505	      2.75350951	    -10.00222204	      0.00000000	    -26.53662713	      1.45111409	      5.95361127
      5.74000000	     -2.09334489	     -6.00659785	     -1.35521909	     -0.76773846	      0.90513022	      0.18392677	    -18.06551876	     11.32504314	      1.94132026	     -2.20611821	     21.47050188	     -1.32406567	      0.00000000	     36.88296551	     -6.08372630	     -7.54386365	    -22.07044555	      2.97964480	     -9.44521125	      0.00000000	    -26.69904289	      1.56114830	      5.99887863
      5.75000000	     -2.01627887	     -5.91936228	     -1.08109627	     -0.75348118	      0.90170641	      0.18241381	    -18.86358636	     11.15679750	      1.24273512	     -2.69684286	     22.01305299	     -0.42021102	      0.00000000	     37.22811792	     -5.44340549	     -6.20496541	    -23.05884439	      3.01229438	     -9.59984167	      0.00000000	    -26.78219896	      1.46418402	      5.85048210
      5.76000000	     -1.92118855	     -5.81244154	     -0.81867888	     -0.73909178	      0.89848439	      0.18088759	    -19.63135807	     10.96300191	      0.89656358	     -3.29429816	     22.24830695	      0.05223468	      0.00000000	     37.59573642	     -4.80387200	     -4.97977250	    -24.57407624	      3.08396598	    -10.15156572	      0.00000000	    -26.90007364	      1.36165441	      5.68095531
      5.77000000	     -1.86687180	     -5.48755000	     -0.52481774	     -0.72423439	      0.89549211	      0.17918300	    -20.25298637	     10.55073046	      0.16706067	     -4.09477131	     22.49951546	      0.78536139	      0.00000000	     37.96282593	     -3.92488107	     -3.86150763	    -26.44204428	      3.07007897	    -11.12929301	      0.00000000	    -26.90425490	      1.03015155	      5.37963726
      5.78000000	     -1.78352645	     -5.05566786	     -0.25962686	     -0.70906664	      0.89287197	      0.17742755	    -20.78536744	     10.00594216	     -0.72334538	     -5.14320247	     22.63431864	      1.65260629	      0.00000000	     38.28085530	     -2.96315551	     -2.88404820	    -28.63169733	      3.15224051	    -12.23445852	      0.00000000	    -26.91559503	      0.57407688	      5.07398005
      5.79000000	     -1.61047431	     -4.51816000	     -0.06341421	     -0.69355781	      0.89077366	      0.17565584	    -21.27671047	      9.29853822	     -1.84391855	     -6.47642187	     22.62144455	      2.77822164	      0.00000000	     38.44596653	     -1.94822706	     -2.09406229	    -30.98884609	      3.40731249	    -13.36629989	      0.00000000	    -26.99433973	     -0.01941881	      4.83691008
      5.80000000	     -1.39225466	     -3.88009623	      0.14440724	     -0.67776803	      0.88910363	      0.17386987	    -21.69552370	      8.47233838	     -2.85525726	     -8.06129750	     22.29448973	      3.72208115	      0.00000000	     38.49523450	     -0.83793544	     -1.40095112	    -33.36563813	      3.73592039	    -14.52480515	      0.00000000	    -27.09727743	     -0.72178925	      4.50500509
      5.81000000	     -1.07946760	     -3.16296150	      0.29619358	     -0.66163944	      0.88801519	      0.17216256	    -22.05812415	      7.50833237	     -3.91503810	     -9.96988000	     21.63595898	      4.73311113	      0.00000000	     38.31212635	      0.28809466	     -0.90662656	    -35.60435537	      4.28471375	    -15.60984383	      0.00000000	    -27.26145254	     -1.53464203	      4.21224095
      5.82000000	     -0.73753462	     -2.42586804	      0.37001144	     -0.64522149	      0.88745444	      0.17059129	    -22.26452220	      6.45219976	     -4.88289149	    -12.24704652	     20.56154524	      5.76562055	      0.00000000	     37.92931120	      1.35748194	     -0.59778076	    -37.59644328	      5.11527032	    -16.55444096	      0.00000000	    -27.40447657	     -2.39515070	      3.95499788
      5.83000000	     -0.14977822	     -1.67299823	      0.37455138	     -0.62877344	      0.88778455	      0.16908490	    -22.49427958	      5.30091879	     -5.73689379	    -14.92870632	     18.98439450	      6.73432196	      0.00000000	     37.07904205	      2.38361505	     -0.43538072	    -39.22703225	      6.08081272	    -17.51601376	      0.00000000	    -27.84936932	     -3.28321749	      3.77925499
      5.84000000	      0.34227900	     -1.03296458	      0.24302578	     -0.61231450	      0.88851525	      0.16780659	    -22.33536911	      4.16406843	     -6.31108928	    -18.06057031	     16.92233883	      7.66553000	      0.00000000	     36.14833874	      3.19218317	     -0.44024160	    -40.55668581	      7.36684679	    -18.16212934	      0.00000000	    -28.14605930	     -4.08327133	      3.73720520
      5.85000000	      0.63956353	     -0.62702193	      0.03637942	     -0.59611634	      0.88945096	      0.16661215	    -21.62880070	      3.19427847	     -6.55652520	    -21.64222059	     14.36585023	      8.48522016	      0.00000000	     35.29132347	      3.71675140	     -0.48864136	    -41.64347378	      8.87829002	    -18.51883037	      0.00000000	    -28.20476949	     -4.62346105	      3.86044716
